<svg t="1599708501307" class="icon" viewBox="0 0 1024 1024" version="1.1" xmlns="http://www.w3.org/2000/svg" p-id="3161" width="200" height="200"><path d="M512.4 953.8c217.2 13.4 282.4 3.2 280.7-17.3-2.3-16.4-29.6-37.5-86.4-49.8 46.9-35.7 88.6-108.3 92-176.1 8.4 15 56.8 84 77.9 87.8 26.3-90.1-37.6-245-86.4-354.9C797.8 54.8 512.4 64.2 512.4 64.2h-0.9s-285.4-9.4-277.9 379.3C184.8 553.3 121 708.2 147.3 798.4c21.1-3.8 69.5-72.8 77.9-87.8 3.4 67.8 45.1 140.4 92 176-56.8 12.3-84 33.4-86.4 49.9-1.7 20.5 63.5 30.8 280.7 17.3h0.9z m0 0" p-id="3162"></path></svg>