<svg t="1599706808824" class="icon" viewBox="0 0 1087 1024" version="1.1" xmlns="http://www.w3.org/2000/svg" p-id="2401" width="200" height="200"><path d="M760.32 330.88c-183.04 0-327.68 128-327.68 283.2S577.28 896 760.32 896a488.64 488.64 0 0 0 115.52-19.84l105.28 58.88-29.12-96c77.12-58.24 134.4-136 135.04-224 0-156.8-152.32-284.16-326.72-284.16z m-101.12 239.68a42.56 42.56 0 1 1 42.24-42.56 42.56 42.56 0 0 1-42.24 42.56z m209.92 0a42.56 42.56 0 0 1-41.92-42.56A41.6 41.6 0 0 1 870.72 485.44a42.56 42.56 0 0 1 0 85.12z" p-id="2402"></path><path d="M735.68 311.04a354.88 354.88 0 0 1 36.8 2.24c-32-156.48-199.04-273.28-388.48-273.28-211.2 0-384 146.24-384 331.52 0 106.56 57.28 194.56 153.92 263.04l-38.4 116.8 134.4-68.16a684.8 684.8 0 0 0 135.04 19.84 315.84 315.84 0 0 0 35.52-2.24 310.08 310.08 0 0 1-11.52-81.6c-0.96-171.2 143.68-308.16 326.72-308.16z m-208.64-117.44a54.4 54.4 0 1 1-53.76 54.4 54.08 54.08 0 0 1 53.76-54.4z m-272.96 108.8a54.4 54.4 0 1 1 53.76-54.4 54.08 54.08 0 0 1-53.76 54.4z" p-id="2403"></path></svg>